<?xml version="1.0" standalone="no"?><!DOCTYPE svg PUBLIC "-//W3C//DTD SVG 1.1//EN" "http://www.w3.org/Graphics/SVG/1.1/DTD/svg11.dtd"><svg t="1665802819001" class="icon" viewBox="0 0 1024 1024" version="1.1" xmlns="http://www.w3.org/2000/svg" p-id="3932" width="32" height="32" xmlns:xlink="http://www.w3.org/1999/xlink"><path d="M785.066667 247.466667m-32 0a32 32 0 1 0 64 0 32 32 0 1 0-64 0Z" fill="#efc24e" p-id="3933"></path><path d="M324.266667 430.933333c0 106.666667 85.333333 192 192 192s192-85.333333 192-192-85.333333-192-192-192-192 85.333333-192 192z m341.333333 0c0 83.2-66.133333 149.333333-149.333333 149.333334s-149.333333-66.133333-149.333334-149.333334 66.133333-149.333333 149.333334-149.333333 149.333333 66.133333 149.333333 149.333333z" fill="#efc24e" p-id="3934"></path><path d="M925.866667 768l-100.266667-153.6c32-53.333333 51.2-117.333333 51.2-185.6 0-34.133333-4.266667-70.4-14.933333-102.4-4.266667-10.666667-14.933333-17.066667-25.6-14.933333-10.666667 4.266667-17.066667 14.933333-14.933334 25.6 8.533333 29.866667 12.8 59.733333 12.8 91.733333 0 174.933333-142.933333 317.866667-317.866666 317.866667S198.4 605.866667 198.4 430.933333 341.333333 113.066667 516.266667 113.066667c70.4 0 138.666667 23.466667 194.133333 66.133333 8.533333 6.4 23.466667 6.4 29.866667-4.266667 6.4-8.533333 6.4-21.333333-4.266667-29.866666-64-49.066667-140.8-74.666667-221.866667-74.666667-198.4 0-360.533333 162.133333-360.533333 360.533333 0 66.133333 17.066667 125.866667 46.933333 179.2L98.133333 768c-4.266667 6.4-4.266667 12.8-2.133333 21.333333 2.133333 6.4 8.533333 10.666667 17.066667 12.8l140.8 21.333334 74.666666 121.6c4.266667 6.4 10.666667 10.666667 17.066667 10.666666 6.4 0 12.8-4.266667 17.066667-10.666666l102.4-155.733334c14.933333 2.133333 32 4.266667 49.066666 4.266667 14.933333 0 27.733333 0 42.666667-2.133333l102.4 155.733333c4.266667 6.4 10.666667 10.666667 17.066667 10.666667 6.4 0 14.933333-4.266667 17.066666-10.666667l74.666667-121.6 140.8-21.333333c6.4 0 12.8-6.4 17.066667-12.8 4.266667-8.533333 4.266667-17.066667 0-23.466667z m-578.133334 125.866667l-61.866666-102.4c-4.266667-4.266667-8.533333-8.533333-14.933334-10.666667l-117.333333-17.066667 76.8-115.2c46.933333 61.866667 115.2 108.8 194.133333 130.133334l-76.8 115.2z m407.466667-113.066667c-6.4 0-10.666667 4.266667-14.933333 10.666667l-61.866667 102.4-74.666667-113.066667c78.933333-19.2 147.2-64 196.266667-125.866667l72.533333 110.933334-117.333333 14.933333z" fill="#efc24e" p-id="3935"></path></svg>