<?xml version="1.0" standalone="no"?><!DOCTYPE svg PUBLIC "-//W3C//DTD SVG 1.1//EN" "http://www.w3.org/Graphics/SVG/1.1/DTD/svg11.dtd"><svg t="1663568296549" class="icon" viewBox="0 0 1024 1024" version="1.1" xmlns="http://www.w3.org/2000/svg" p-id="7321" width="16" height="16" xmlns:xlink="http://www.w3.org/1999/xlink"><path d="M744.832 128L896 128.128l0.085333 150.314667-233.258666 233.216 120.661333 120.704 60.373333-60.330667 60.330667 60.330667-105.557333 105.6 120.661333 120.704-60.330667 60.330666-120.704-120.704-105.6 105.6-60.330666-60.330666 60.330666-60.373334-120.704-120.661333-120.661333 120.661333 60.373333 60.373334-60.330666 60.330666-105.6-105.6-120.704 120.704-60.330667-60.330666 120.704-120.746667-105.6-105.557333 60.330667-60.330667 60.330666 60.288 120.618667-120.661333-232.96-232.96L128 128l151.296 0.128 232.661333 232.704L744.832 128z m-323.413333 443.989333L300.8 692.650667l30.208 30.165333 120.618667-120.661333-30.165334-30.165334z m389.290666-358.613333h-30.592l-207.786666 207.744 30.122666 30.165333 208.256-208.170666v-29.738667z m-597.333333 0v29.866667l479.616 479.616 30.165333-30.165334L243.882667 213.418667l-30.506667-0.042667z" p-id="7322" fill="#8a8a8a"></path></svg>